<svg width="24" height="16" viewBox="0 0 24 16" fill="none" xmlns="http://www.w3.org/2000/svg">
<g clip-path="url(#clip0_24_4240)">
<path d="M21.8 0.200855H2.2C1.09543 0.200855 0.199997 1.09629 0.199997 2.20086V13.8009C0.199997 14.9054 1.09543 15.8009 2.2 15.8009H21.8C22.9046 15.8009 23.8 14.9054 23.8 13.8009V2.20086C23.8 1.09629 22.9046 0.200855 21.8 0.200855Z" fill="url(#paint0_linear_24_4240)" stroke="#C9C9CC" stroke-width="0.4"/>
<path d="M5.00928 5.99011H9.15869V7.05994H6.56104V7.85632H8.9707V8.8783H6.56104V9.86609H9.23389V11.0009H5.00928V5.99011ZM10.0713 5.99011H12.9697C13.4528 5.99011 13.8236 6.10974 14.0823 6.349C14.3409 6.58826 14.4702 6.88448 14.4702 7.23767C14.4702 7.5339 14.3779 7.78796 14.1934 7.99988C14.0703 8.14115 13.8903 8.25281 13.6533 8.33484C14.0133 8.42143 14.2782 8.57011 14.448 8.78088C14.6178 8.99166 14.7026 9.25655 14.7026 9.57556C14.7026 9.83533 14.6423 10.0689 14.5215 10.2762C14.4007 10.4836 14.2355 10.6477 14.0259 10.7684C13.896 10.8436 13.7 10.8983 13.438 10.9325C13.0894 10.9781 12.8581 11.0009 12.7441 11.0009H10.0713V5.99011ZM11.6333 7.95544H12.3066C12.5482 7.95544 12.7162 7.91386 12.8108 7.83069C12.9054 7.74752 12.9526 7.62732 12.9526 7.47009C12.9526 7.32426 12.9054 7.21033 12.8108 7.1283C12.7162 7.04626 12.5516 7.00525 12.3169 7.00525H11.6333V7.95544ZM11.6333 9.92419H12.4229C12.6895 9.92419 12.8774 9.87691 12.9868 9.78235C13.0962 9.68778 13.1509 9.56075 13.1509 9.40125C13.1509 9.25313 13.0968 9.13407 12.9885 9.04407C12.8803 8.95406 12.6906 8.90906 12.4194 8.90906H11.6333V9.92419ZM15.1606 5.99011H19.8672V7.22742H18.2881V11.0009H16.7397V7.22742H15.1606V5.99011Z" fill="white"/>
</g>
<defs>
<linearGradient id="paint0_linear_24_4240" x1="22.9355" y1="4.88371" x2="4.51184" y2="16.6426" gradientUnits="userSpaceOnUse">
<stop stop-color="#1C7BD0"/>
<stop offset="1" stop-color="#06396C"/>
</linearGradient>
<clipPath id="clip0_24_4240">
<rect width="24" height="16" fill="white" transform="translate(0 0.000854492)"/>
</clipPath>
</defs>
</svg>
